<?xml version="1.0" encoding="UTF-8" standalone="no"?>
<svg
   xmlns:dc="http://purl.org/dc/elements/1.1/"
   xmlns:cc="http://creativecommons.org/ns#"
   xmlns:rdf="http://www.w3.org/1999/02/22-rdf-syntax-ns#"
   xmlns:svg="http://www.w3.org/2000/svg"
   xmlns="http://www.w3.org/2000/svg"
   xmlns:xlink="http://www.w3.org/1999/xlink"
   xmlns:sodipodi="http://sodipodi.sourceforge.net/DTD/sodipodi-0.dtd"
   xmlns:inkscape="http://www.inkscape.org/namespaces/inkscape"
   width="50mm"
   height="50mm"
   viewBox="0 0 50 49.999998"
   version="1.1"
   id="svg1015"
   sodipodi:docname="logoKel8-trans.svg"
   inkscape:version="1.0.1 (3bc2e813f5, 2020-09-07)">
  <defs
     id="defs1009">
    <linearGradient
       inkscape:collect="always"
       id="linearGradient959">
      <stop
         style="stop-color:#e6166c;stop-opacity:1;"
         offset="0"
         id="stop955" />
      <stop
         style="stop-color:#e66d16;stop-opacity:1"
         offset="1"
         id="stop957" />
    </linearGradient>
    <linearGradient
       inkscape:collect="always"
       xlink:href="#linearGradient959"
       id="linearGradient1005"
       gradientUnits="userSpaceOnUse"
       gradientTransform="matrix(1.7920054,0,0,1.7920056,-107.53326,-98.923746)"
       x1="78.902451"
       y1="75.969032"
       x2="62.465584"
       y2="52.315678" />
  </defs>
  <sodipodi:namedview
     id="base"
     pagecolor="#ffffff"
     bordercolor="#666666"
     borderopacity="1.0"
     inkscape:pageopacity="0.0"
     inkscape:pageshadow="2"
     inkscape:zoom="1.4"
     inkscape:cx="155.31473"
     inkscape:cy="64.963973"
     inkscape:document-units="mm"
     inkscape:current-layer="layer1"
     inkscape:document-rotation="0"
     showgrid="false"
     inkscape:snap-page="true"
     inkscape:snap-smooth-nodes="true"
     inkscape:object-paths="true"
     inkscape:window-width="1366"
     inkscape:window-height="705"
     inkscape:window-x="-8"
     inkscape:window-y="-8"
     inkscape:window-maximized="1" />
  <metadata
     id="metadata1012">
    <rdf:RDF>
      <cc:Work
         rdf:about="">
        <dc:format>image/svg+xml</dc:format>
        <dc:type
           rdf:resource="http://purl.org/dc/dcmitype/StillImage" />
        <dc:title></dc:title>
      </cc:Work>
    </rdf:RDF>
  </metadata>
  <g
     inkscape:label="Layer 1"
     inkscape:groupmode="layer"
     id="layer1">
    <path
       id="path1001"
       style="fill:url(#linearGradient1005);fill-opacity:1;stroke:none;stroke-width:1.0668;stroke-linecap:round;stroke-linejoin:round"
       d="M 25.000461,0.09449224 A 24.905316,24.905321 0 0 0 2.1669792,15.055671 h 9.5345618 a 1.702405,1.7024053 0 0 1 1.70391,1.701144 1.702405,1.7024053 0 0 1 -1.70391,1.701142 H 0.96961501 a 24.905316,24.905321 0 0 0 -0.87512575,6.542508 24.905316,24.905321 0 0 0 0.87419429,6.540651 H 11.701541 a 1.702405,1.7024053 0 0 1 1.70391,1.703923 1.702405,1.7024053 0 0 1 -1.70391,1.701143 H 2.1669792 A 24.905316,24.905321 0 0 0 25.000461,49.905506 24.905316,24.905321 0 0 0 46.447647,37.659489 c -0.395513,0.06779 -0.799234,0.111122 -1.213116,0.111122 -3.976388,0 -7.234254,-3.261569 -7.234254,-7.237966 0,-2.213507 1.010888,-4.201944 2.591992,-5.532186 -1.581104,-1.331219 -2.591992,-3.321462 -2.591992,-5.534969 0,-3.976396 3.257866,-7.234263 7.234254,-7.234263 0.414509,0 0.818893,0.04321 1.21498,0.111122 A 24.905316,24.905321 0 0 0 25.000461,0.09449224 Z m -6.087818,14.95932576 15.82518,0.01667 v 5.133063 c 0,0.798088 -0.158951,1.371668 -0.475991,1.721517 -0.306111,0.338911 -0.710208,0.508395 -1.213117,0.508395 -0.491976,0 -0.897005,-0.169488 -1.214047,-0.508395 -0.30611,-0.338917 -0.459309,-0.912501 -0.459309,-1.721517 V 18.432023 H 22.79925 v 4.870997 h 2.951308 c 0,-0.874619 0.08243,-1.437654 0.24633,-1.689106 0.338904,-0.535705 0.819609,-0.803809 1.44278,-0.803809 0.491959,0 0.891252,0.175222 1.197363,0.52507 0.317059,0.338911 0.475992,0.912496 0.475992,1.721517 v 3.870865 c 0,0.809021 -0.158951,1.388338 -0.475992,1.738182 -0.306111,0.338917 -0.710207,0.508401 -1.213116,0.508401 -0.612221,0 -1.088123,-0.268104 -1.427027,-0.803805 -0.163969,-0.251453 -0.24633,-0.820229 -0.24633,-1.705776 H 22.79925 v 4.920075 h 3.443966 c 0.809019,0 1.382605,0.158019 1.72151,0.475063 0.349851,0.306115 0.525073,0.711136 0.525073,1.214042 0,0.491972 -0.175258,0.896071 -0.525073,1.213121 -0.338905,0.306113 -0.912491,0.459317 -1.72151,0.459317 h -7.330573 c -0.80902,0 -1.388339,-0.153199 -1.738175,-0.459317 -0.338921,-0.31705 -0.508409,-0.726882 -0.508409,-1.229786 0,-0.491973 0.174361,-0.891262 0.524143,-1.197377 0.349854,-0.317049 0.924352,-0.475063 1.722441,-0.475063 h 0.524143 V 18.432022 h -0.524143 c -0.80902,0 -1.388339,-0.152285 -1.738175,-0.458393 -0.338921,-0.317045 -0.508409,-0.727808 -0.508409,-1.230713 0,-0.502904 0.169524,-0.907006 0.508409,-1.213114 0.349836,-0.317051 0.929155,-0.475987 1.738175,-0.475987 z m 26.321888,0.579704 c -2.136304,0 -3.829194,1.695673 -3.829194,3.831973 0,2.1363 1.69289,3.832896 3.829194,3.832896 2.136303,0 3.832901,-1.696596 3.832901,-3.832896 0,-2.1363 -1.696598,-3.831973 -3.832901,-3.831973 z M 6.7240495,20.550819 a 1.702405,1.7024053 0 0 1 0.027775,0 H 11.70154 a 1.702405,1.7024053 0 0 1 1.70391,1.701142 1.702405,1.7024053 0 0 1 -1.70391,1.704847 H 6.7518271 A 1.702405,1.7024053 0 0 1 5.0506943,22.251961 1.702405,1.7024053 0 0 1 6.7240495,20.550819 Z m 43.1814525,4.423714 c -0.009,0.0083 -0.01812,0.01774 -0.02777,0.02593 0.009,0.0081 0.01812,0.01774 0.02777,0.02593 a 24.905316,24.905321 0 0 0 0,-0.02593 24.905316,24.905321 0 0 0 0,-0.02593 z M 6.7240495,26.045964 a 1.702405,1.7024053 0 0 1 0.027775,0 H 11.70154 a 1.702405,1.7024053 0 0 1 1.70391,1.701144 1.702405,1.7024053 0 0 1 -1.70391,1.703922 H 6.7518271 A 1.702405,1.7024053 0 0 1 5.0506943,27.747108 1.702405,1.7024053 0 0 1 6.7240495,26.045964 Z m 38.5104815,0.657492 c -2.136304,0 -3.829194,1.692894 -3.829194,3.829194 0,2.1363 1.69289,3.8329 3.829194,3.8329 2.136303,0 3.832901,-1.6966 3.832901,-3.8329 0,-2.1363 -1.696598,-3.829194 -3.832901,-3.829194 z" />
  </g>
</svg>
